<?xml version="1.0" encoding="UTF-8" standalone="no"?>
<!-- Created with Inkscape (http://www.inkscape.org/) -->

<svg
   width="1200"
   height="1200"
   viewBox="0 0 317.49996 317.5"
   version="1.1"
   id="svg5"
   inkscape:version="1.3 (0e150ed6c4, 2023-07-21)"
   sodipodi:docname="pastel.svg"
   inkscape:export-filename="simplified.png"
   inkscape:export-xdpi="96"
   inkscape:export-ydpi="96"
   xmlns:inkscape="http://www.inkscape.org/namespaces/inkscape"
   xmlns:sodipodi="http://sodipodi.sourceforge.net/DTD/sodipodi-0.dtd"
   xmlns="http://www.w3.org/2000/svg"
   xmlns:svg="http://www.w3.org/2000/svg">
  <sodipodi:namedview
     id="namedview7"
     pagecolor="#ffffff"
     bordercolor="#666666"
     borderopacity="1.0"
     inkscape:pageshadow="2"
     inkscape:pageopacity="0.0"
     inkscape:pagecheckerboard="0"
     inkscape:document-units="px"
     showgrid="false"
     fit-margin-top="0"
     fit-margin-left="0"
     fit-margin-right="0"
     fit-margin-bottom="0"
     inkscape:zoom="0.25"
     inkscape:cx="102"
     inkscape:cy="1768"
     inkscape:window-width="1891"
     inkscape:window-height="2086"
     inkscape:window-x="0"
     inkscape:window-y="0"
     inkscape:window-maximized="1"
     inkscape:current-layer="layer13"
     units="px"
     scale-x="1e-05"
     viewbox-width="33.86666"
     borderlayer="true"
     showborder="true"
     inkscape:showpageshadow="true"
     inkscape:deskcolor="#d1d1d1"
     showguides="false" />
  <defs
     id="defs2">
    <marker
       style="overflow:visible"
       id="Arrow1Lstart"
       refX="0"
       refY="0"
       orient="auto"
       inkscape:stockid="Arrow1Lstart"
       inkscape:isstock="true">
      <path
         transform="matrix(0.8,0,0,0.8,10,0)"
         style="fill:context-stroke;fill-rule:evenodd;stroke:context-stroke;stroke-width:1pt"
         d="M 0,0 5,-5 -12.5,0 5,5 Z"
         id="path18472" />
    </marker>
    <clipPath
       clipPathUnits="userSpaceOnUse"
       id="clipPath10705">
      <path
         id="path10707"
         style="display:inline;fill:#ffccaa;fill-opacity:0.5;stroke:none;stroke-width:0.399825;stroke-opacity:1"
         d="m 136.35949,-5.9375252 c -5.86353,-0.029541 -6.38528,0.088254 -10.93573,0.7099723 -4.55045,0.6217179 -9.01209,2.8917078 -10.35317,3.526086 -1.34108,0.6343782 -7.8179,3.8469877 -10.98729,9.1900369 -3.16939,5.343049 -4.754739,10.476332 -5.599499,18.380073 -0.84476,7.903741 1.131603,22.327192 1.231653,22.873595 -4.341677,0.655292 -10.173103,5.420557 -10.173103,13.381705 0,7.96115 9.017864,12.967903 11.402769,13.936767 2.3849,0.968865 7.1543,3.502784 7.1543,3.502784 0,0 6.37397,23.287446 39.82496,25.404606 33.45099,2.11716 39.73537,-17.812372 40.47314,-23.398498 0.73777,-5.586124 1.54635,-8.787272 -0.10561,-16.467795 -1.65196,-7.680523 -1.64634,-12.75233 -1.40458,-21.771797 0.24175,-9.019467 1.79548,-13.098753 -2.06003,-21.98152 C 180.97179,12.465723 175.21653,6.1939255 165.2608,0.72297088 155.30507,-4.747985 142.22302,-5.9079871 136.35949,-5.9375252 Z"
         sodipodi:nodetypes="zzzzzczzczzzzzzz" />
    </clipPath>
    <clipPath
       clipPathUnits="userSpaceOnUse"
       id="clipPath10709">
      <path
         id="path10711"
         style="display:inline;fill:#ffccaa;fill-opacity:0.5;stroke:none;stroke-width:0.399825;stroke-opacity:1"
         d="m 136.35949,-5.9375252 c -5.86353,-0.029541 -6.38528,0.088254 -10.93573,0.7099723 -4.55045,0.6217179 -9.01209,2.8917078 -10.35317,3.526086 -1.34108,0.6343782 -7.8179,3.8469877 -10.98729,9.1900369 -3.16939,5.343049 -4.754739,10.476332 -5.599499,18.380073 -0.84476,7.903741 1.131603,22.327192 1.231653,22.873595 -4.341677,0.655292 -10.173103,5.420557 -10.173103,13.381705 0,7.96115 9.017864,12.967903 11.402769,13.936767 2.3849,0.968865 7.1543,3.502784 7.1543,3.502784 0,0 6.37397,23.287446 39.82496,25.404606 33.45099,2.11716 39.73537,-17.812372 40.47314,-23.398498 0.73777,-5.586124 1.54635,-8.787272 -0.10561,-16.467795 -1.65196,-7.680523 -1.64634,-12.75233 -1.40458,-21.771797 0.24175,-9.019467 1.79548,-13.098753 -2.06003,-21.98152 C 180.97179,12.465723 175.21653,6.1939255 165.2608,0.72297088 155.30507,-4.747985 142.22302,-5.9079871 136.35949,-5.9375252 Z"
         sodipodi:nodetypes="zzzzzczzczzzzzzz" />
    </clipPath>
    <clipPath
       clipPathUnits="userSpaceOnUse"
       id="clipPath10713">
      <path
         id="path10715"
         style="display:inline;fill:#ffccaa;fill-opacity:0.5;stroke:none;stroke-width:0.399825;stroke-opacity:1"
         d="m 136.35949,-5.9375252 c -5.86353,-0.029541 -6.38528,0.088254 -10.93573,0.7099723 -4.55045,0.6217179 -9.01209,2.8917078 -10.35317,3.526086 -1.34108,0.6343782 -7.8179,3.8469877 -10.98729,9.1900369 -3.16939,5.343049 -4.754739,10.476332 -5.599499,18.380073 -0.84476,7.903741 1.131603,22.327192 1.231653,22.873595 -4.341677,0.655292 -10.173103,5.420557 -10.173103,13.381705 0,7.96115 9.017864,12.967903 11.402769,13.936767 2.3849,0.968865 7.1543,3.502784 7.1543,3.502784 0,0 6.37397,23.287446 39.82496,25.404606 33.45099,2.11716 39.73537,-17.812372 40.47314,-23.398498 0.73777,-5.586124 1.54635,-8.787272 -0.10561,-16.467795 -1.65196,-7.680523 -1.64634,-12.75233 -1.40458,-21.771797 0.24175,-9.019467 1.79548,-13.098753 -2.06003,-21.98152 C 180.97179,12.465723 175.21653,6.1939255 165.2608,0.72297088 155.30507,-4.747985 142.22302,-5.9079871 136.35949,-5.9375252 Z"
         sodipodi:nodetypes="zzzzzczzczzzzzzz" />
    </clipPath>
    <clipPath
       clipPathUnits="userSpaceOnUse"
       id="clipPath10717">
      <path
         id="path10719"
         style="display:inline;fill:#ffccaa;fill-opacity:0.5;stroke:none;stroke-width:0.399825;stroke-opacity:1"
         d="m 136.35949,-5.9375252 c -5.86353,-0.029541 -6.38528,0.088254 -10.93573,0.7099723 -4.55045,0.6217179 -9.01209,2.8917078 -10.35317,3.526086 -1.34108,0.6343782 -7.8179,3.8469877 -10.98729,9.1900369 -3.16939,5.343049 -4.754739,10.476332 -5.599499,18.380073 -0.84476,7.903741 1.131603,22.327192 1.231653,22.873595 -4.341677,0.655292 -10.173103,5.420557 -10.173103,13.381705 0,7.96115 9.017864,12.967903 11.402769,13.936767 2.3849,0.968865 7.1543,3.502784 7.1543,3.502784 0,0 6.37397,23.287446 39.82496,25.404606 33.45099,2.11716 39.73537,-17.812372 40.47314,-23.398498 0.73777,-5.586124 1.54635,-8.787272 -0.10561,-16.467795 -1.65196,-7.680523 -1.64634,-12.75233 -1.40458,-21.771797 0.24175,-9.019467 1.79548,-13.098753 -2.06003,-21.98152 C 180.97179,12.465723 175.21653,6.1939255 165.2608,0.72297088 155.30507,-4.747985 142.22302,-5.9079871 136.35949,-5.9375252 Z"
         sodipodi:nodetypes="zzzzzczzczzzzzzz" />
    </clipPath>
    <clipPath
       clipPathUnits="userSpaceOnUse"
       id="clipPath10721">
      <path
         id="path10723"
         style="display:inline;fill:#ffccaa;fill-opacity:0.5;stroke:none;stroke-width:0.399825;stroke-opacity:1"
         d="m 136.35949,-5.9375252 c -5.86353,-0.029541 -6.38528,0.088254 -10.93573,0.7099723 -4.55045,0.6217179 -9.01209,2.8917078 -10.35317,3.526086 -1.34108,0.6343782 -7.8179,3.8469877 -10.98729,9.1900369 -3.16939,5.343049 -4.754739,10.476332 -5.599499,18.380073 -0.84476,7.903741 1.131603,22.327192 1.231653,22.873595 -4.341677,0.655292 -10.173103,5.420557 -10.173103,13.381705 0,7.96115 9.017864,12.967903 11.402769,13.936767 2.3849,0.968865 7.1543,3.502784 7.1543,3.502784 0,0 6.37397,23.287446 39.82496,25.404606 33.45099,2.11716 39.73537,-17.812372 40.47314,-23.398498 0.73777,-5.586124 1.54635,-8.787272 -0.10561,-16.467795 -1.65196,-7.680523 -1.64634,-12.75233 -1.40458,-21.771797 0.24175,-9.019467 1.79548,-13.098753 -2.06003,-21.98152 C 180.97179,12.465723 175.21653,6.1939255 165.2608,0.72297088 155.30507,-4.747985 142.22302,-5.9079871 136.35949,-5.9375252 Z"
         sodipodi:nodetypes="zzzzzczzczzzzzzz" />
    </clipPath>
    <clipPath
       clipPathUnits="userSpaceOnUse"
       id="clipPath10725">
      <path
         id="path10727"
         style="display:inline;fill:#ffccaa;fill-opacity:0.5;stroke:none;stroke-width:0.399825;stroke-opacity:1"
         d="m 92.22225,-100.61919 c -4.16703,4.125254 -4.452669,4.577481 -7.230702,8.234756 -2.778033,3.657275 -4.327763,8.417257 -4.827477,9.814117 -0.499713,1.396859 -2.807858,8.248321 -1.270849,14.267524 1.53701,6.019204 4.045778,10.769994 9.037232,16.956118 4.991453,6.186124 16.587876,14.987544 17.044986,15.303163 -2.60667,3.53339 -3.36056,11.026382 2.26882,16.655764 5.62939,5.629383 15.54629,2.793098 17.91776,1.791807 2.37147,-1.001289 7.5357,-2.582012 7.5357,-2.582012 0,0 20.97379,11.959632 46.12427,-10.196734 25.15048,-22.156364 15.5019,-40.692399 12.07359,-45.164068 -3.42831,-4.471668 -5.12011,-7.306974 -11.71917,-11.569811 -6.59906,-4.262837 -10.1814,-7.85312 -16.38817,-14.401794 -6.20679,-6.54867 -7.99262,-10.53182 -16.99995,-14.08662 -9.00732,-3.55481 -17.51173,-3.92006 -28.42005,-0.74884 -10.90831,3.17121 -20.978961,11.60138 -25.14599,15.72663 z"
         sodipodi:nodetypes="zzzzzczzczzzzzzz" />
    </clipPath>
    <clipPath
       clipPathUnits="userSpaceOnUse"
       id="clipPath10729">
      <path
         id="path10731"
         style="display:inline;fill:#ffccaa;fill-opacity:0.5;stroke:none;stroke-width:0.399825;stroke-opacity:1"
         d="m 92.22225,-100.61919 c -4.16703,4.125254 -4.452669,4.577481 -7.230702,8.234756 -2.778033,3.657275 -4.327763,8.417257 -4.827477,9.814117 -0.499713,1.396859 -2.807858,8.248321 -1.270849,14.267524 1.53701,6.019204 4.045778,10.769994 9.037232,16.956118 4.991453,6.186124 16.587876,14.987544 17.044986,15.303163 -2.60667,3.53339 -3.36056,11.026382 2.26882,16.655764 5.62939,5.629383 15.54629,2.793098 17.91776,1.791807 2.37147,-1.001289 7.5357,-2.582012 7.5357,-2.582012 0,0 20.97379,11.959632 46.12427,-10.196734 25.15048,-22.156364 15.5019,-40.692399 12.07359,-45.164068 -3.42831,-4.471668 -5.12011,-7.306974 -11.71917,-11.569811 -6.59906,-4.262837 -10.1814,-7.85312 -16.38817,-14.401794 -6.20679,-6.54867 -7.99262,-10.53182 -16.99995,-14.08662 -9.00732,-3.55481 -17.51173,-3.92006 -28.42005,-0.74884 -10.90831,3.17121 -20.978961,11.60138 -25.14599,15.72663 z"
         sodipodi:nodetypes="zzzzzczzczzzzzzz" />
    </clipPath>
    <clipPath
       clipPathUnits="userSpaceOnUse"
       id="clipPath10733">
      <path
         id="path10735"
         style="display:inline;fill:#ffccaa;fill-opacity:0.5;stroke:none;stroke-width:0.399825;stroke-opacity:1"
         d="m 136.35949,-5.9375252 c -5.86353,-0.029541 -6.38528,0.088254 -10.93573,0.7099723 -4.55045,0.6217179 -9.01209,2.8917078 -10.35317,3.526086 -1.34108,0.6343782 -7.8179,3.8469877 -10.98729,9.1900369 -3.16939,5.343049 -4.754739,10.476332 -5.599499,18.380073 -0.84476,7.903741 1.131603,22.327192 1.231653,22.873595 -4.341677,0.655292 -10.173103,5.420557 -10.173103,13.381705 0,7.96115 9.017864,12.967903 11.402769,13.936767 2.3849,0.968865 7.1543,3.502784 7.1543,3.502784 0,0 6.37397,23.287446 39.82496,25.404606 33.45099,2.11716 39.73537,-17.812372 40.47314,-23.398498 0.73777,-5.586124 1.54635,-8.787272 -0.10561,-16.467795 -1.65196,-7.680523 -1.64634,-12.75233 -1.40458,-21.771797 0.24175,-9.019467 1.79548,-13.098753 -2.06003,-21.98152 C 180.97179,12.465723 175.21653,6.1939255 165.2608,0.72297088 155.30507,-4.747985 142.22302,-5.9079871 136.35949,-5.9375252 Z"
         sodipodi:nodetypes="zzzzzczzczzzzzzz" />
    </clipPath>
    <clipPath
       clipPathUnits="userSpaceOnUse"
       id="clipPath10737">
      <path
         id="path10739"
         style="display:inline;fill:#ffccaa;fill-opacity:0.5;stroke:none;stroke-width:0.399825;stroke-opacity:1"
         d="m 136.35949,-5.9375252 c -5.86353,-0.029541 -6.38528,0.088254 -10.93573,0.7099723 -4.55045,0.6217179 -9.01209,2.8917078 -10.35317,3.526086 -1.34108,0.6343782 -7.8179,3.8469877 -10.98729,9.1900369 -3.16939,5.343049 -4.754739,10.476332 -5.599499,18.380073 -0.84476,7.903741 1.131603,22.327192 1.231653,22.873595 -4.341677,0.655292 -10.173103,5.420557 -10.173103,13.381705 0,7.96115 9.017864,12.967903 11.402769,13.936767 2.3849,0.968865 7.1543,3.502784 7.1543,3.502784 0,0 6.37397,23.287446 39.82496,25.404606 33.45099,2.11716 39.73537,-17.812372 40.47314,-23.398498 0.73777,-5.586124 1.54635,-8.787272 -0.10561,-16.467795 -1.65196,-7.680523 -1.64634,-12.75233 -1.40458,-21.771797 0.24175,-9.019467 1.79548,-13.098753 -2.06003,-21.98152 C 180.97179,12.465723 175.21653,6.1939255 165.2608,0.72297088 155.30507,-4.747985 142.22302,-5.9079871 136.35949,-5.9375252 Z"
         sodipodi:nodetypes="zzzzzczzczzzzzzz" />
    </clipPath>
  </defs>
  <g
     inkscape:groupmode="layer"
     id="layer2"
     inkscape:label="background"
     transform="translate(142.84303,48.676388)">
    <rect
       style="fill:#f5f1b0;fill-opacity:1;stroke-width:5.29167;stroke-linecap:round;stroke-linejoin:bevel"
       id="rect1"
       width="1058.3333"
       height="1058.3333"
       x="-493.09464"
       y="-493.33197"
       inkscape:label="yellow" />
    <rect
       style="fill:#b0e5f5;fill-opacity:1;stroke:none;stroke-width:7.6416;stroke-linecap:round;stroke-linejoin:bevel;stroke-dasharray:none;stroke-opacity:1"
       id="rect148-3"
       width="1058.3333"
       height="1058.3333"
       x="-456.70438"
       y="-1235.2988"
       transform="rotate(160.97382)"
       inkscape:label="stair1" />
    <rect
       style="fill:#58c9e9;fill-opacity:1;stroke:none;stroke-width:7.6416;stroke-linecap:round;stroke-linejoin:bevel;stroke-dasharray:none;stroke-opacity:1"
       id="rect148-3-1"
       width="1058.3333"
       height="1058.3333"
       x="-439.45352"
       y="-1285.3247"
       transform="rotate(160.97382)"
       inkscape:label="stair2" />
    <rect
       style="fill:#1a9dc1;fill-opacity:1;stroke:none;stroke-width:7.6416;stroke-linecap:round;stroke-linejoin:bevel;stroke-dasharray:none;stroke-opacity:1"
       id="rect148-3-1-2"
       width="1058.3333"
       height="1058.3333"
       x="-422.2027"
       y="-1335.3505"
       transform="rotate(160.97382)"
       inkscape:label="stair3" />
    <rect
       style="fill:#f4a8a4;fill-opacity:1;stroke:none;stroke-width:6.12285;stroke-linecap:round;stroke-linejoin:bevel;stroke-dasharray:none;stroke-opacity:1"
       id="rect152"
       width="1058.3333"
       height="1058.3333"
       x="-721.46552"
       y="-1020.4384"
       rx="0"
       ry="0"
       transform="rotate(-45)"
       inkscape:label="pink" />
    <rect
       style="fill:#a7f4a4;fill-opacity:1;stroke:none;stroke-width:11.6991;stroke-linecap:round;stroke-linejoin:bevel;stroke-dasharray:none;stroke-opacity:1"
       id="rect56"
       width="1058.3333"
       height="1058.3333"
       x="-388.36765"
       y="-1048.1587"
       inkscape:export-filename="../../../../../x/yantene.png"
       inkscape:export-xdpi="96"
       inkscape:export-ydpi="96"
       inkscape:label="green"
       transform="rotate(27.388037)" />
  </g>
  <g
     inkscape:label="yantene"
     inkscape:groupmode="layer"
     id="layer1"
     transform="translate(21.673633,21.231751)"
     style="display:inline">
    <g
       inkscape:groupmode="layer"
       id="layer10"
       inkscape:label="socks"
       transform="translate(121.1694,27.444637)"
       style="display:inline">
      <path
         style="fill:#78a2d2;fill-opacity:1;stroke:none;stroke-width:3.07226;stroke-linecap:round;stroke-linejoin:bevel;stroke-opacity:1"
         d="m 52.577074,222.96822 c 1.856854,8.86558 -2.990772,13.26544 -1.037352,18.5445 1.0741,2.90273 26.889696,20.22709 35.629298,9.84345 7.492587,-8.90204 -15.24319,-10.73867 -17.49608,-17.4775 -3.05519,-9.13867 6.467402,-21.73465 -2.77116,-20.90184 -6.452131,0.58163 -16.11461,1.44547 -16.11461,1.44547 z"
         id="path36"
         sodipodi:nodetypes="ssssscs"
         inkscape:label="left-sock" />
      <ellipse
         style="fill:#f4ddcc;fill-opacity:1;stroke:none;stroke-width:3.33064;stroke-linecap:round;stroke-linejoin:bevel;stroke-dasharray:none;stroke-opacity:1"
         id="path39"
         transform="rotate(-19.111902)"
         ry="2.5599103"
         rx="4.0282221"
         cy="265.13126"
         cx="-4.8371797"
         inkscape:label="hole" />
      <path
         style="fill:#78a2d2;fill-opacity:1;stroke:none;stroke-width:3.07226;stroke-linecap:round;stroke-linejoin:bevel;stroke-opacity:1"
         d="m -37.04187,172.31513 c -16.384271,-16.73542 -18.694793,-8.32915 -24.085288,-5.05908 -9.758559,5.9199 -20.072118,15.0145 -15.721575,19.88853 4.356819,4.88107 19.679857,-11.83023 30.246389,-2.33781 3.55838,3.19667 9.560474,-12.49164 9.560474,-12.49164 z"
         id="path35"
         sodipodi:nodetypes="csssc"
         inkscape:label="right-sock" />
    </g>
    <g
       inkscape:groupmode="layer"
       id="layer8"
       inkscape:label="body"
       transform="translate(121.1694,27.444637)"
       style="display:inline">
      <path
         id="path30"
         style="fill:#f4ddcc;fill-opacity:1;stroke:none;stroke-width:3.07226;stroke-linecap:round;stroke-linejoin:bevel;stroke-opacity:1"
         d="m 5.8161832,60.255233 c 1.0801092,8.802212 -9.8164594,13.82913 -9.8164594,13.82913 0,0 2.28495,11.78482 27.9357562,13.30616 16.39002,0.9721 23.25285,-12.90257 23.25285,-12.90257 0,0 -3.97787,-2.33377 -10.57507,-8.280112 C 30.01605,60.261478 5.8161832,60.255233 5.8161832,60.255233 Z M 137.91505,66.208358 c -4.49914,-0.153036 -16.0202,4.303364 -28.02257,4.568713 0,0 1.72982,5.635742 3.66902,11.659752 1.93921,6.02401 20.81648,-3.37299 25.52247,-12.336197 1.47063,-2.801004 0.87615,-3.822707 -1.16892,-3.892268 z M -92.936444,80.341863 c -2.003853,0.0252 -2.654401,0.63757 -2.816365,2.17351 -0.883269,8.37615 14.89411,18.287167 25.033612,16.73231 10.139497,-1.55486 1.632953,-15.6949 3.074748,-15.69517 -14.854307,-1.66355 -21.95224,-3.25271 -25.291995,-3.21065 z"
         inkscape:label="arm" />
    </g>
    <path
       id="path33"
       style="display:inline;fill:#cccccc;fill-opacity:1;stroke:none;stroke-width:3.07226;stroke-linecap:round;stroke-linejoin:bevel;stroke-opacity:1"
       d="m 107.88185,167.88919 c -0.45638,12.66191 -1.08713,23.64725 -6.78136,26.41117 -3.972182,1.92807 -5.851743,3.98542 -14.928195,0.114 -4.849797,-2.06861 -11.887285,7.50417 -18.051626,16.32154 -6.164341,8.81736 -2.165328,12.09339 7.06872,15.24731 9.234051,3.15393 34.768451,5.75466 48.374891,2.20772 12.67875,-3.30513 15.48755,-6.78536 17.81023,-14.95593 4.02078,0.66664 5.1239,0.99134 8.00785,1.33423 3.25042,18.79574 5.55421,25.11525 6.53767,29.00805 2.46761,9.76747 1.51752,12.43729 9.56709,13.64823 8.04956,1.21093 20.40188,4.56915 27.43172,0.855 6.02555,-3.18354 -2.45224,-55.03424 -8.93044,-85.76307 z"
       sodipodi:nodetypes="csssssccssscc"
       inkscape:label="pants" />
    <g
       inkscape:groupmode="layer"
       id="layer7"
       inkscape:label="shirt"
       style="display:inline">
      <path
         style="display:inline;fill:#ececec;fill-opacity:1;stroke-width:3.07226;stroke-linecap:round;stroke-linejoin:bevel"
         d="m 118.40149,104.61067 c 20.79004,7.51966 16.87184,6.85981 24.7394,8.07498 7.86756,1.21516 28.34499,-7.45453 28.34499,-7.45453 0,0 6.35393,16.5254 -6.87265,19.82246 -13.22662,3.29707 -33.89025,5.08314 -42.16942,-0.814 -8.27917,-5.89714 -4.04232,-19.62891 -4.04232,-19.62891 z"
         id="path17"
         sodipodi:nodetypes="cscssc"
         inkscape:label="shirt-body" />
      <path
         style="fill:#78a2d2;fill-opacity:1;stroke:none;stroke-width:3.24492;stroke-linecap:round;stroke-linejoin:bevel;stroke-opacity:1"
         d="m 118.07381,101.8154 c -1.2509,3.42026 -2.13557,3.06804 -0.3452,4.51962 1.7904,1.45159 6.5134,8.64787 25.78602,8.56278 19.27262,-0.0851 29.056,-5.60648 28.65355,-7.37629 -0.40247,-1.76979 -1.8278,-4.13205 -1.8278,-4.13205 0,0 -4.54674,6.82655 -21.78782,7.21145 -17.24108,0.3849 -20.41361,-2.10214 -25.3996,-4.56846 -4.98601,-2.46631 -5.07915,-4.21705 -5.07915,-4.21705 z"
         id="path50"
         sodipodi:nodetypes="cssccscc"
         inkscape:label="collar" />
      <path
         style="fill:#78a2d2;fill-opacity:1;stroke:none;stroke-width:3.24492;stroke-linecap:round;stroke-linejoin:bevel;stroke-opacity:1"
         d="m 239.74197,96.061116 c 0,0 -5.56731,0.739716 -9.50459,1.992901 0,0 2.43486,21.628253 5.64731,21.540943 4.90092,-0.13319 12.97725,-0.75965 12.97725,-0.75965 0,0 -0.35105,-6.91932 -4.0717,-16.0084 -1.79502,-4.385007 -5.04827,-6.765794 -5.04827,-6.765794 z"
         id="path28"
         inkscape:label="left-sleeve"
         sodipodi:nodetypes="ccscsc" />
      <path
         style="fill:#78a2d2;fill-opacity:1;stroke:none;stroke-width:3.24492;stroke-linecap:round;stroke-linejoin:bevel;stroke-opacity:1"
         d="m 43.27183,108.62102 c 0,0 -3.269509,7.30659 -2.668571,19.34301 0.207962,4.16535 0.784742,4.8031 0.792199,4.88497 0.0076,-9.5e-4 8.861411,-1.10301 11.943973,-1.37356 3.083889,-0.27065 1.854667,-22.69835 1.854667,-22.69835 -3.967528,0.0864 -7.978493,-0.0878 -11.922268,-0.15607 z"
         id="path51"
         inkscape:label="right-sleeve"
         sodipodi:nodetypes="cscscc" />
    </g>
    <g
       inkscape:groupmode="layer"
       id="layer6"
       inkscape:label="hoodie"
       transform="translate(121.1694,27.444637)"
       style="display:inline">
      <path
         id="path21"
         style="fill:#f9f9f9;fill-opacity:1;stroke-width:3.07226;stroke-linecap:round;stroke-linejoin:bevel"
         d="m 56.19605,68.923437 c -6.97257,-0.105335 -29.40751,27.171986 -29.40751,27.171986 0,0 -5.14608,-5.11168 -30.1872962,-24.000603 -4.2847898,-3.232064 -11.5551238,-1.311895 -16.7266338,2.067573 -15.790072,5.64299 -42.543813,5.15852 -46.640043,5.71128 l -4.106726,0.55397 c 0,0 -4.497739,6.74913 -4.417301,14.90142 0.08043,8.152277 1.211812,12.184257 1.211812,12.184257 0,0 15.736279,2.58531 30.513381,-1.16375 9.04247,-2.29413 17.067041,-3.59933 21.961447,-4.27261 0.0654,0.14343 0.12404,0.28207 0.19069,0.42633 0.34179,10.44806 1.09398,35.15155 0.1974,41.35923 -0.97899,6.77803 6.871471,9.63323 12.607504,11.71712 5.7360398,2.0839 51.922376,5.72025 68.258876,0.99167 10.95493,-3.1709 14.5141,-6.53907 12.54135,-18.3286 -1.52621,-9.12097 -1.24232,-30.1097 -1.04128,-39.075647 14.0098,-1.95665 48.87347,-4.94233 48.87347,-4.94233 0,0 0.5271,-1.864157 -1.89725,-10.777394 -2.78672,-10.245498 -7.22106,-14.02264 -7.22106,-14.02264 0,0 -23.83824,5.115014 -45.05871,1.472778 -2.92668,-1.223255 -6.36577,-1.924383 -9.65212,-1.97404 z"
         inkscape:label="hoodie-body"
         sodipodi:nodetypes="scscccscsccssssccsccs" />
      <path
         id="path16"
         style="fill:#ececec;fill-opacity:1;stroke-width:3.07226;stroke-linecap:round;stroke-linejoin:bevel"
         d="M 6.6201528,48.27498 C 5.5239236,48.152975 4.247404,48.645558 2.775344,50.106773 c -6.7293902,6.679842 -8.1120701,5.538643 -12.8799,12.235964 -4.767804,6.697306 -12.476094,14.874366 3.60318,22.486346 10.38497,5.78027 22.270556,7.79366 33.280746,11.27104 C 14.70789,85.885173 -4.4937661,72.816143 -2.3351362,68.116392 -0.17640614,63.41654 19.20995,61.726067 19.20995,61.726067 c 0,0 -8.67474,-13.015317 -12.5897972,-13.451087 z M 26.77937,96.100123 c -4.1e-4,6.2e-4 -8.4e-4,9.8e-4 -0.001,0.002 l 0.002,-9.5e-4 2e-5,-6e-4 c 0.005,-0.004 21.13275,-13.69332 29.38348,-16.74043 8.25213,-3.04757 11.27089,-16.444566 0.75101,-22.103816 -10.52011,-5.659256 -28.83729,-0.08658 -29.92403,2.712955 -1.08673,2.799527 19.88353,6.116221 19.49795,10.39675 -0.38557,4.280421 -4.29783,2.790311 -19.70876,25.734521 z"
         sodipodi:nodetypes="sssccscssccccsssss"
         inkscape:label="outer-hood" />
      <path
         style="fill:none;fill-opacity:1;stroke:#cccccc;stroke-width:3.04183;stroke-linecap:round;stroke-linejoin:bevel;stroke-dasharray:none;stroke-opacity:1"
         d="m 45.6265,82.691853 c -2.40576,3.64335 -1.34715,12.86885 -1.34715,12.86885"
         id="path38"
         sodipodi:nodetypes="cc"
         inkscape:label="left-string" />
      <path
         style="fill:none;fill-opacity:1;stroke:#cccccc;stroke-width:3.04183;stroke-linecap:round;stroke-linejoin:bevel;stroke-dasharray:none;stroke-opacity:1"
         d="m 7.3523124,89.101503 c 2.0654284,6.46644 0.5747592,31.136307 -1.8745288,35.232477"
         id="path37"
         sodipodi:nodetypes="cc"
         inkscape:label="right-string" />
      <path
         id="path19"
         style="fill:#cccccc;fill-opacity:1;stroke-width:3.07226;stroke-linecap:round;stroke-linejoin:bevel"
         d="m -5.846156,56.472518 c -2.84773,5.250664 -6.573021,12.612499 -4.39818,15.565458 4.3875218,5.957296 15.7779696,13.209727 24.763346,17.961697 8.98536,4.75194 12.26953,6.09368 12.26953,6.09368 0,0 -5.432135,-5.485981 -22.424984,-19.098442 C -1.3210224,72.441166 3.291814,63.878168 9.1115808,60.694483 11.75653,59.247569 -5.846156,56.472518 -5.846156,56.472518 Z M 39.87301,58.36801 c -0.84988,0.01512 -1.56414,0.144975 -2.09083,0.410311 -3.37078,1.698144 -5.24565,3.46996 -0.52451,5.94744 4.72113,2.477462 9.62239,3.437295 8.98291,5.545914 -0.63946,2.108604 -10.554,12.969308 -14.71021,18.655188 -4.14025,5.66405 -4.73666,7.15512 -4.73666,7.15512 1.07702,-1.35864 6.32134,-5.68412 11.40085,-10.55646 C 43.63498,80.307013 62.72354,68.715824 57.4585,64.827047 53.01612,61.545872 44.46237,58.286381 39.87301,58.36801 Z"
         inkscape:label="inner-hood"
         sodipodi:nodetypes="csscsscssssscsss" />
    </g>
    <g
       inkscape:groupmode="layer"
       id="layer3"
       inkscape:label="face"
       transform="translate(-21.673633,-21.231751)"
       style="display:inline">
      <rect
         style="fill:#f8e5d6;fill-opacity:1;stroke-width:7.26443;stroke-linecap:square;stroke-linejoin:round;paint-order:stroke fill markers;stop-color:#000000"
         id="rect6807"
         width="135.46663"
         height="67.733322"
         x="73.684555"
         y="39.526882"
         clip-path="url(#clipPath10737)"
         inkscape:export-filename="../../../../../x/yantene.png"
         inkscape:export-xdpi="96"
         inkscape:export-ydpi="96"
         inkscape:label="left-face"
         transform="translate(21.673633,21.231751)" />
      <rect
         style="display:inline;fill:#c9ab80;fill-opacity:1;stroke-width:7.26443;stroke-linecap:square;stroke-linejoin:round;paint-order:stroke fill markers;stop-color:#000000"
         id="rect6807-6"
         width="135.46663"
         height="67.733322"
         x="73.68457"
         y="-28.206446"
         clip-path="url(#clipPath10733)"
         inkscape:label="right-head"
         transform="translate(21.673633,21.231751)" />
      <circle
         style="fill:#c9ab80;fill-opacity:1;stroke-width:6.78952;stroke-linecap:square;stroke-linejoin:round;paint-order:stroke fill markers;stop-color:#000000"
         id="path957"
         cx="88.269653"
         cy="-72.047806"
         r="39.677017"
         transform="rotate(45.000003,-14.792172,36.778262)"
         clip-path="url(#clipPath10729)"
         inkscape:label="right-head" />
      <circle
         style="fill:#f8e5d6;fill-opacity:1;stroke-width:6.78952;stroke-linecap:square;stroke-linejoin:round;paint-order:stroke fill markers;stop-color:#000000"
         id="path957-3"
         cx="167.62486"
         cy="-72.047806"
         r="39.677017"
         transform="rotate(45.000003,-14.792172,36.778262)"
         clip-path="url(#clipPath10725)"
         inkscape:label="left-face" />
      <path
         style="fill:none;fill-opacity:1;stroke:#78a2d2;stroke-width:4.23333;stroke-linecap:round;stroke-linejoin:round;stroke-miterlimit:4;stroke-dasharray:none;stroke-opacity:1;paint-order:stroke fill markers;stop-color:#000000"
         id="path10410-7"
         sodipodi:type="arc"
         sodipodi:cx="171.47917"
         sodipodi:cy="55.607456"
         sodipodi:rx="14.816664"
         sodipodi:ry="14.739569"
         sodipodi:start="3.7661063"
         sodipodi:end="5.7072281"
         sodipodi:arc-type="arc"
         sodipodi:open="true"
         d="m 159.45919,46.989189 a 14.816664,14.739569 0 0 1 12.37967,-6.116958 14.816664,14.739569 0 0 1 12.06662,6.707499"
         clip-path="url(#clipPath10721)"
         inkscape:label="left-eyebrow"
         transform="translate(21.673633,21.231751)" />
      <path
         style="fill:none;fill-opacity:1;stroke:#78a2d2;stroke-width:4.23333;stroke-linecap:round;stroke-linejoin:round;stroke-miterlimit:4;stroke-dasharray:none;stroke-opacity:1;paint-order:stroke fill markers;stop-color:#000000"
         id="path10410-7-5"
         sodipodi:type="arc"
         sodipodi:cx="136.05891"
         sodipodi:cy="52.657948"
         sodipodi:rx="14.816664"
         sodipodi:ry="14.739569"
         sodipodi:start="3.9557329"
         sodipodi:end="5.9076537"
         sodipodi:arc-type="arc"
         sodipodi:open="true"
         d="m 125.88737,41.940282 a 14.816664,14.739569 0 0 1 13.39492,-3.668876 14.816664,14.739569 0 0 1 10.56076,8.980552"
         clip-path="url(#clipPath10717)"
         inkscape:label="right-eyebrow"
         transform="translate(21.673633,21.231751)" />
      <path
         style="fill:none;stroke:#78a2d2;stroke-width:4.23334;stroke-linecap:round;stroke-linejoin:round;stroke-miterlimit:4;stroke-dasharray:none;stroke-opacity:1"
         d="m 128.37773,51.872258 16.38949,5.898851 -16.07851,7.858792"
         id="path19015"
         sodipodi:nodetypes="ccc"
         clip-path="url(#clipPath10713)"
         inkscape:label="right-eye"
         transform="translate(21.673633,21.231751)" />
      <path
         style="fill:none;stroke:#78a2d2;stroke-width:4.23334;stroke-linecap:round;stroke-linejoin:round;stroke-miterlimit:4;stroke-dasharray:none;stroke-opacity:1"
         d="m 180.13882,53.63913 -16.6683,5.057595 15.65798,8.666424"
         id="path19015-3"
         sodipodi:nodetypes="ccc"
         clip-path="url(#clipPath10709)"
         inkscape:label="left-eye"
         transform="translate(21.673633,21.231751)" />
      <path
         style="fill:#d47d7d;fill-opacity:1;stroke:none;stroke-width:0.529166px;stroke-linecap:butt;stroke-linejoin:miter;stroke-opacity:1"
         d="m 143.31059,78.072753 c -3.6629,3.39307 -2.0309,25.136147 6.81022,26.340137 8.84112,1.20399 15.07994,-18.377497 12.72984,-22.412917 -2.3501,-4.03543 -15.87714,-7.3203 -19.54006,-3.92722 z"
         id="path19499"
         sodipodi:nodetypes="zzzz"
         clip-path="url(#clipPath10705)"
         inkscape:label="mouth"
         transform="translate(21.673633,21.231751)" />
      <path
         id="path1"
         style="display:inline;fill:#c9ab80;fill-opacity:1;stroke-width:2.67229;stroke-linecap:round;stroke-linejoin:bevel"
         inkscape:label="aho-hair"
         d="m 130.3269,-12.273642 c 0,0 -5.02868,5.3647765 -14.2691,10.0326879 -9.24041,4.6679114 -20.180476,5.8681493 -20.180476,5.8681493 0,0 1.675421,2.0690565 9.183906,2.3352751 C 96.513224,17.500439 90.609429,19.045891 90.609429,19.045891 c 0,0 4.5641,0.899271 8.688875,0.75706 -1.147028,5.288111 -7.244002,18.311543 -7.244002,18.311543 0,0 2.982794,-0.130176 6.308141,-2.464966 0.742402,8.819971 0.629419,21.249348 0.629419,21.249348 0,0 2.381258,-2.994524 4.335648,-6.138643 2.07489,6.301796 4.98988,9.373587 4.98988,9.373587 0,0 1.90935,-3.111123 3.44992,-6.787699 2.95234,3.438982 7.28793,7.090006 7.28793,7.090006 0,0 2.72346,-8.647095 0.0661,-16.040363 0,0 -2.80801,0.298994 -5.45755,1.08107 -0.0376,-0.680666 -0.16261,-1.306494 -0.40772,-1.845882 -1.17486,-2.585319 -4.44179,-3.196648 -7.24659,-3.201354 -2.47482,-0.0042 -4.5899,0.464054 -4.5899,0.464054 0.0391,0.532473 0.0896,1.049215 0.14469,1.559078 -1.1045,0.0081 -2.817348,-5.81232 -3.118668,-6.863147 0.984017,-0.700646 1.994648,-1.585493 2.966748,-2.729549 3.96643,-4.66809 -0.9499,-11.953243 -1.740466,-13.067935 1.957316,-0.09908 3.779826,-0.449173 4.918566,-1.26814 3.28654,-2.363657 1.9296,-11.7048593 1.66656,-13.3423368 1.59619,0.044402 3.33411,0.059998 5.40846,-0.00672 11.9382,-0.3839484 3.86957,-6.2102394 3.24063,-6.6517899 0.67963,0.1060521 12.17723,1.86564159 13.45085,-0.6397542 0.35572,-0.6997508 0.65931,-1.7751989 0.91881,-2.9589923 3.40727,1.9695226 14.29591,7.8854478 21.12739,6.7783972 2.82126,-0.4571875 5.10803,-1.78269662 6.90552,-3.3098753 -0.4568,2.03483839 -1.05092,7.6656044 6.39186,8.2289546 2.417,0.1829444 4.56293,-0.1650031 6.42441,-0.7627441 1.18249,2.8450068 7.70238,11.0339508 7.70238,11.0339508 0.9678,0.588786 1.88922,1.080128 2.7683,1.49655 -0.69613,3.252185 -1.17202,7.549409 -1.17202,7.549409 6.70757,8.4619 14.06477,7.216614 14.06477,7.216614 0,0 -5.97611,-7.395189 -9.08213,-13.341304 5.15763,1.38769 7.98246,-0.156063 7.98246,-0.156063 0,0 -15.65272,-11.687306 -20.26595,-14.572753 3.88263,-1.7949104 6.04305,-4.47207815 6.04305,-4.47207815 0,0 -11.32073,-1.44077447 -20.08922,-2.91041645 2.84179,-2.7123701 4.21783,-5.7459022 4.21783,-5.7459022 0,0 -22.5299,2.1915107 -32.8445,2.1078816 0.58005,-3.0022886 0.87695,-6.3386308 0.87695,-6.3386308 z"
         transform="translate(21.673633,21.231751)"
         sodipodi:nodetypes="czccccccccccccccccccscscscscscscccccccccccccc" />
    </g>
  </g>
  <g
     inkscape:groupmode="layer"
     id="layer11"
     inkscape:label="clock"
     transform="translate(142.84303,48.676388)"
     style="display:none">
    <path
       id="path41"
       style="fill:#ececec;stroke-width:6.49086;stroke-linecap:round;stroke-linejoin:bevel"
       d="M 172.70661,-29.237969 C 211.72315,7.840702 137.87436,71.919301 108.3621,24.380983 83.22042,-14.440836 139.56531,-71.513676 172.70661,-29.237969 Z"
       inkscape:label="face" />
    <path
       id="path42"
       style="color:#000000;fill:#888888;fill-opacity:1;stroke-width:1.22104;stroke-linecap:round;stroke-linejoin:bevel;-inkscape-stroke:none"
       d="m 120.65931,-10.320586 a 3.2454262,3.2454262 0 0 0 -2.96313,2.614192 3.2454262,3.2454262 0 0 0 2.56119,3.808654 c 9.39943,1.841552 14.27876,2.952208 16.75214,3.585915 -1.3674,3.212415 -4.25256,9.938303 -10.43719,24.128419 a 3.2454262,3.2454262 0 0 0 1.67906,4.273695 3.2454262,3.2454262 0 0 0 4.27117,-1.679064 c 9.39519,-21.556457 11.61904,-26.915502 11.61904,-26.915502 a 3.2454262,3.2454262 0 0 0 -0.47765,-3.28935 3.2454262,3.2454262 0 0 0 -0.58619,-0.94333 c 0,0 -0.45565,-0.430634 -0.61711,-0.539496 -0.16146,-0.108855 -0.28985,-0.178181 -0.40826,-0.237883 -0.23679,-0.119405 -0.44157,-0.199317 -0.70355,-0.293411 -0.52395,-0.188185 -1.27329,-0.417023 -2.60851,-0.760973 -2.67042,-0.687903 -7.65505,-1.821846 -17.23549,-3.698863 a 3.2454262,3.2454262 0 0 0 -0.84552,-0.05301 z"
       inkscape:label="hands" />
  </g>
  <g
     id="g49"
     transform="matrix(1.3467124,-0.15562621,0.15562621,1.3467124,-88.383177,-40.332675)"
     inkscape:label="attention"
     style="display:none">
    <path
       style="display:inline;fill:#78a2d2;fill-opacity:1;stroke:none;stroke-width:10.7402;stroke-linecap:round;stroke-linejoin:bevel;stroke-dasharray:none;stroke-opacity:1"
       d="m 232.26309,216.94321 c -18.83133,22.50678 -18.3763,24.73037 -18.3763,24.73037 l 10.6584,5.4036 19.29574,-23.29319 z"
       id="path44"
       sodipodi:nodetypes="ccccc" />
    <path
       style="fill:#78a2d2;fill-opacity:1;stroke:none;stroke-width:10.7402;stroke-linecap:round;stroke-linejoin:bevel;stroke-dasharray:none;stroke-opacity:1"
       d="m 259.81055,239.4158 c -25.64923,14.258 -26.02175,16.49691 -26.02175,16.49691 l 8.01216,8.86599 26.36472,-14.8256 z"
       id="path44-8"
       sodipodi:nodetypes="ccccc" />
    <path
       style="fill:#78a2d2;fill-opacity:1;stroke:none;stroke-width:10.7402;stroke-linecap:round;stroke-linejoin:bevel;stroke-dasharray:none;stroke-opacity:1"
       d="m 270.10873,278.57942 c -28.97062,-4.67723 -30.64899,-3.14935 -30.64899,-3.14935 l 0.80526,11.92277 29.88393,4.67428 z"
       id="path44-0"
       sodipodi:nodetypes="ccccc" />
  </g>
  <g
     inkscape:groupmode="layer"
     id="layer5"
     inkscape:label="dialogue"
     style="display:none"
     transform="translate(142.84303,48.676388)">
    <g
       id="g47"
       transform="matrix(1.7453402,0,0,1.7453402,-282.50022,54.651891)"
       inkscape:label="damedayo">
      <text
         xml:space="preserve"
         style="font-weight:900;font-size:22.4505px;line-height:1;font-family:'M+ 1c';-inkscape-font-specification:'M+ 1c Heavy';fill:#d47d7d;fill-opacity:1;stroke:#d47d7d;stroke-width:5.79736;stroke-linecap:round;stroke-linejoin:bevel;stroke-dasharray:none;stroke-opacity:1"
         x="237.34921"
         y="66.658493"
         id="text38-6-9"
         transform="rotate(-15)"><tspan
           sodipodi:role="line"
           style="fill:#d47d7d;fill-opacity:1;stroke:#d47d7d;stroke-width:5.79736;stroke-dasharray:none;stroke-opacity:1"
           x="237.34921"
           y="66.658493"
           id="tspan39-1-6">DAME</tspan><tspan
           sodipodi:role="line"
           style="fill:#d47d7d;fill-opacity:1;stroke:#d47d7d;stroke-width:5.79736;stroke-dasharray:none;stroke-opacity:1"
           x="237.34921"
           y="89.108994"
           id="tspan43-4">DAYO</tspan></text>
      <text
         xml:space="preserve"
         style="font-weight:900;font-size:22.4505px;line-height:1;font-family:'M+ 1c';-inkscape-font-specification:'M+ 1c Heavy';fill:none;fill-opacity:1;stroke:#f2ee52;stroke-width:1.67098;stroke-linecap:round;stroke-linejoin:bevel;stroke-dasharray:none;stroke-opacity:1"
         x="237.34921"
         y="66.658493"
         id="text38-6"
         transform="rotate(-15)"><tspan
           sodipodi:role="line"
           style="fill:none;stroke:#f2ee52;stroke-width:1.67098;stroke-dasharray:none;stroke-opacity:1"
           x="237.34921"
           y="66.658493"
           id="tspan39-1">DAME</tspan><tspan
           sodipodi:role="line"
           style="fill:none;stroke:#f2ee52;stroke-width:1.67098;stroke-dasharray:none;stroke-opacity:1"
           x="237.34921"
           y="89.108994"
           id="tspan43">DAYO</tspan></text>
    </g>
    <g
       id="g43"
       transform="matrix(1.6442858,-0.06194173,0.06194173,1.6442858,-558.09796,103.57585)"
       inkscape:label="girigiri-safe">
      <text
         xml:space="preserve"
         style="font-weight:900;font-size:20.4922px;line-height:1;font-family:'M+ 1c';-inkscape-font-specification:'M+ 1c Heavy';fill:none;fill-opacity:1;stroke:#78a2d2;stroke-width:5.29167;stroke-linecap:round;stroke-linejoin:bevel;stroke-dasharray:none;stroke-opacity:1"
         x="200.31535"
         y="-31.666405"
         id="text38-1"
         transform="rotate(15)"><tspan
           sodipodi:role="line"
           id="tspan38-1"
           style="fill:none;fill-opacity:1;stroke:#78a2d2;stroke-width:5.29167;stroke-dasharray:none;stroke-opacity:1"
           x="200.31535"
           y="-31.666405">GIRIGIRI</tspan><tspan
           sodipodi:role="line"
           style="fill:none;fill-opacity:1;stroke:#78a2d2;stroke-width:5.29167;stroke-dasharray:none;stroke-opacity:1"
           x="200.31535"
           y="-11.174204"
           id="tspan39-7">SAFE!</tspan></text>
      <rect
         style="fill:#b3b3b3;fill-opacity:1;stroke-width:2.67229;stroke-linecap:round;stroke-linejoin:bevel"
         id="rect17"
         width="0.44104692"
         height="0.093544327"
         x="211.17111"
         y="65.782463" />
      <text
         xml:space="preserve"
         style="font-weight:900;font-size:20.4922px;line-height:1;font-family:'M+ 1c';-inkscape-font-specification:'M+ 1c Heavy';fill:none;fill-opacity:1;stroke:#f2ee52;stroke-width:1.52523;stroke-linecap:round;stroke-linejoin:bevel;stroke-dasharray:none;stroke-opacity:1"
         x="200.31535"
         y="-31.666405"
         id="text38"
         transform="rotate(15)"><tspan
           sodipodi:role="line"
           id="tspan38"
           style="fill:none;stroke:#f2ee52;stroke-width:1.52523;stroke-dasharray:none;stroke-opacity:1"
           x="200.31535"
           y="-31.666405">GIRIGIRI</tspan><tspan
           sodipodi:role="line"
           style="fill:none;stroke:#f2ee52;stroke-width:1.52523;stroke-dasharray:none;stroke-opacity:1"
           x="200.31535"
           y="-11.174204"
           id="tspan39">SAFE!</tspan></text>
    </g>
  </g>
  <g
     inkscape:groupmode="layer"
     id="layer13"
     inkscape:label="crops"
     style="display:none"
     transform="translate(142.84303,48.676388)">
    <rect
       style="display:inline;fill:#ff0000;fill-opacity:0.2;stroke:none;stroke-width:32.1886;stroke-linecap:round;stroke-linejoin:bevel;stroke-dasharray:none;stroke-opacity:1"
       id="3840x2160"
       width="571.49994"
       height="1015.9999"
       x="-404.64792"
       y="-484.8887"
       inkscape:label="3840x2160"
       transform="rotate(-90)" />
    <rect
       style="display:inline;fill:#ff0000;fill-opacity:0.2;stroke:none;stroke-width:26.8239;stroke-linecap:round;stroke-linejoin:bevel;stroke-dasharray:none;stroke-opacity:1"
       id="2400x2400"
       width="634.99994"
       height="634.99994"
       x="-432.91489"
       y="-294.38873"
       inkscape:label="2400x2400"
       transform="rotate(-90)" />
    <rect
       style="display:inline;fill:#ff0000;fill-opacity:0.2;stroke:none;stroke-width:22.6199;stroke-linecap:round;stroke-linejoin:bevel;stroke-dasharray:none;stroke-opacity:1"
       id="2560x1600"
       width="423.33331"
       height="677.33331"
       x="-322.22794"
       y="-315.55542"
       inkscape:label="2560x1600"
       transform="rotate(-90)" />
    <rect
       style="display:inline;fill:#ff0000;fill-opacity:0.2;stroke:none;stroke-width:4.97017;stroke-linecap:round;stroke-linejoin:bevel;stroke-dasharray:none;stroke-opacity:1"
       id="1920x1200"
       width="507.99997"
       height="317.49997"
       x="-240.97133"
       y="-48.676384"
       inkscape:label="1920x1200"
       inkscape:export-filename="./1920x1200.png"
       inkscape:export-xdpi="96"
       inkscape:export-ydpi="96" />
    <rect
       style="display:inline;fill:#ff0000;fill-opacity:0.2;stroke:none;stroke-width:5.72244;stroke-linecap:round;stroke-linejoin:bevel;stroke-dasharray:none;stroke-opacity:1"
       id="512x512"
       width="135.46666"
       height="135.46666"
       x="-97.319046"
       y="-44.622082"
       inkscape:label="512x512"
       transform="rotate(-90)" />
  </g>
</svg>
